STARTFONT 2.1
FONT --Helv18C-Regular-R-Normal--22-220-72-72-P-122-FONTSPECIFIC-0
SIZE 22 72 72
FONTBOUNDINGBOX 22 22 0 -4
METRICSSET 2
STARTPROPERTIES 19
FONT_ASCENT 18
FONT_DESCENT 4
PIXEL_SIZE 22
RESOLUTION_X 72
RESOLUTION_Y 72
POINT_SIZE 220
FACE_NAME "Modern 18-point C"
FOUNDRY ""
FAMILY_NAME "Helv18C"
WEIGHT_NAME "Regular"
RELATIVE_WEIGHT 50
SLANT "R"
SPACING "P"
SETWIDTH_NAME "Normal"
RELATIVE_SETWIDTH 50
ADD_STYLE_NAME ""
AVERAGE_WIDTH 122
CHARSET_REGISTRY "FONTSPECIFIC"
CHARSET_ENCODING "0"
ENDPROPERTIES
CHARS 194
STARTCHAR char08
ENCODING 8
SWIDTH 545 0
DWIDTH 12 0
BBX 10 11 1 1
VVECTOR 6 18
SWIDTH1 0 -1000
DWIDTH1 0 -22
BITMAP 
8000
8000
8000
9000
B000
FFC0
B000
9000
8000
8000
8000
ENDCHAR
STARTCHAR char09
ENCODING 9
SWIDTH 545 0
DWIDTH 12 0
BBX 10 11 1 1
VVECTOR 6 18
SWIDTH1 0 -1000
DWIDTH1 0 -22
BITMAP 
0040
0040
0040
0240
0340
FFC0
0340
0240
0040
0040
0040
ENDCHAR
STARTCHAR char0C
ENCODING 12
SWIDTH 818 0
DWIDTH 18 0
BBX 15 15 2 0
VVECTOR 10 18
SWIDTH1 0 -1000
DWIDTH1 0 -22
BITMAP 
FFFE
8002
8002
8002
8002
8002
8002
8002
8002
8002
8002
8102
8382
E7CE
0FE0
ENDCHAR
STARTCHAR char0D
ENCODING 13
SWIDTH 818 0
DWIDTH 18 0
BBX 14 16 1 -2
VVECTOR 8 18
SWIDTH1 0 -1000
DWIDTH1 0 -22
BITMAP 
0FF0
0008
0004
0004
0004
0004
0004
0004
0004
1004
3004
7008
FFF0
7000
3000
1000
ENDCHAR
STARTCHAR char1C
ENCODING 28
SWIDTH 545 0
DWIDTH 12 0
BBX 10 5 1 4
VVECTOR 6 18
SWIDTH1 0 -1000
DWIDTH1 0 -22
BITMAP 
2000
6000
FFC0
6000
2000
ENDCHAR
STARTCHAR char1D
ENCODING 29
SWIDTH 545 0
DWIDTH 12 0
BBX 10 5 1 4
VVECTOR 6 18
SWIDTH1 0 -1000
DWIDTH1 0 -22
BITMAP 
0100
0180
FFC0
0180
0100
ENDCHAR
STARTCHAR char1E
ENCODING 30
SWIDTH 545 0
DWIDTH 12 0
BBX 5 10 4 2
VVECTOR 7 18
SWIDTH1 0 -1000
DWIDTH1 0 -22
BITMAP 
20
70
F8
20
20
20
20
20
20
20
ENDCHAR
STARTCHAR char1F
ENCODING 31
SWIDTH 545 0
DWIDTH 12 0
BBX 5 10 3 2
VVECTOR 6 18
SWIDTH1 0 -1000
DWIDTH1 0 -22
BITMAP 
20
20
20
20
20
20
20
F8
70
20
ENDCHAR
STARTCHAR char20
ENCODING 32
SWIDTH 318 0
DWIDTH 7 0
BBX 0 0 0 -4
VVECTOR 0 -4
SWIDTH1 0 0
DWIDTH1 0 0
BITMAP 
ENDCHAR
STARTCHAR char21
ENCODING 33
SWIDTH 318 0
DWIDTH 7 0
BBX 2 15 2 0
VVECTOR 3 18
SWIDTH1 0 -1000
DWIDTH1 0 -22
BITMAP 
C0
C0
C0
C0
C0
C0
C0
C0
C0
C0
C0
00
00
C0
C0
ENDCHAR
STARTCHAR char22
ENCODING 34
SWIDTH 409 0
DWIDTH 9 0
BBX 6 4 1 11
VVECTOR 4 18
SWIDTH1 0 -1000
DWIDTH1 0 -22
BITMAP 
CC
CC
CC
CC
ENDCHAR
STARTCHAR char23
ENCODING 35
SWIDTH 773 0
DWIDTH 17 0
BBX 15 13 1 1
VVECTOR 9 18
SWIDTH1 0 -1000
DWIDTH1 0 -22
BITMAP 
0630
0630
0630
7FFE
7FFE
0C60
0C60
0C60
FFFC
FFFC
18C0
18C0
18C0
ENDCHAR
STARTCHAR char24
ENCODING 36
SWIDTH 545 0
DWIDTH 12 0
BBX 9 16 1 0
VVECTOR 6 18
SWIDTH1 0 -1000
DWIDTH1 0 -22
BITMAP 
0800
0800
3E00
7F00
EB80
C980
E800
7C00
1F00
0B80
C980
EB80
7F00
3E00
0800
0800
ENDCHAR
STARTCHAR char25
ENCODING 37
SWIDTH 773 0
DWIDTH 17 0
BBX 14 15 1 0
VVECTOR 8 18
SWIDTH1 0 -1000
DWIDTH1 0 -22
BITMAP 
7800
FC00
CC18
CC30
CC60
FCC0
7980
0300
0678
0CFC
18CC
30CC
60CC
00FC
0078
ENDCHAR
STARTCHAR char26
ENCODING 38
SWIDTH 636 0
DWIDTH 14 0
BBX 13 15 1 0
VVECTOR 8 18
SWIDTH1 0 -1000
DWIDTH1 0 -22
BITMAP 
1C00
3E00
6300
6300
6300
3600
1C00
3C00
7E30
E730
C3E0
C1C0
E3E0
7F70
1C38
ENDCHAR
STARTCHAR char27
ENCODING 39
SWIDTH 227 0
DWIDTH 5 0
BBX 2 4 2 11
VVECTOR 3 18
SWIDTH1 0 -1000
DWIDTH1 0 -22
BITMAP 
C0
C0
C0
C0
ENDCHAR
STARTCHAR char28
ENCODING 40
SWIDTH 318 0
DWIDTH 7 0
BBX 5 21 1 -4
VVECTOR 4 18
SWIDTH1 0 -1000
DWIDTH1 0 -22
BITMAP 
18
38
60
60
C0
C0
C0
C0
C0
C0
C0
C0
C0
C0
C0
C0
C0
60
60
38
18
ENDCHAR
STARTCHAR char29
ENCODING 41
SWIDTH 318 0
DWIDTH 7 0
BBX 5 21 1 -4
VVECTOR 4 18
SWIDTH1 0 -1000
DWIDTH1 0 -22
BITMAP 
C0
E0
30
30
18
18
18
18
18
18
18
18
18
18
18
18
18
30
30
E0
C0
ENDCHAR
STARTCHAR char2A
ENCODING 42
SWIDTH 545 0
DWIDTH 12 0
BBX 9 8 1 5
VVECTOR 6 18
SWIDTH1 0 -1000
DWIDTH1 0 -22
BITMAP 
6300
3600
1C00
FF80
FF80
1C00
3600
6300
ENDCHAR
STARTCHAR char2B
ENCODING 43
SWIDTH 773 0
DWIDTH 17 0
BBX 14 14 1 1
VVECTOR 8 18
SWIDTH1 0 -1000
DWIDTH1 0 -22
BITMAP 
0300
0300
0300
0300
0300
0300
FFFC
FFFC
0300
0300
0300
0300
0300
0300
ENDCHAR
STARTCHAR char2C
ENCODING 44
SWIDTH 182 0
DWIDTH 4 0
BBX 2 5 1 -3
VVECTOR 2 18
SWIDTH1 0 -1000
DWIDTH1 0 -22
BITMAP 
C0
C0
40
40
80
ENDCHAR
STARTCHAR char2D
ENCODING 45
SWIDTH 773 0
DWIDTH 17 0
BBX 15 2 1 7
VVECTOR 9 18
SWIDTH1 0 -1000
DWIDTH1 0 -22
BITMAP 
FFFE
FFFE
ENDCHAR
STARTCHAR char2E
ENCODING 46
SWIDTH 182 0
DWIDTH 4 0
BBX 2 2 1 0
VVECTOR 2 18
SWIDTH1 0 -1000
DWIDTH1 0 -22
BITMAP 
C0
C0
ENDCHAR
STARTCHAR char2F
ENCODING 47
SWIDTH 318 0
DWIDTH 7 0
BBX 5 15 1 0
VVECTOR 4 18
SWIDTH1 0 -1000
DWIDTH1 0 -22
BITMAP 
18
18
18
18
30
30
30
30
60
60
60
C0
C0
C0
C0
ENDCHAR
STARTCHAR char30
ENCODING 48
SWIDTH 545 0
DWIDTH 12 0
BBX 10 15 1 0
VVECTOR 6 18
SWIDTH1 0 -1000
DWIDTH1 0 -22
BITMAP 
1E00
7F80
E1C0
C0C0
C0C0
C0C0
C0C0
C0C0
C0C0
C0C0
C0C0
C0C0
E1C0
7F80
1E00
ENDCHAR
STARTCHAR char31
ENCODING 49
SWIDTH 545 0
DWIDTH 12 0
BBX 6 15 2 0
VVECTOR 5 18
SWIDTH1 0 -1000
DWIDTH1 0 -22
BITMAP 
0C
1C
FC
FC
0C
0C
0C
0C
0C
0C
0C
0C
0C
0C
0C
ENDCHAR
STARTCHAR char32
ENCODING 50
SWIDTH 545 0
DWIDTH 12 0
BBX 10 15 1 0
VVECTOR 6 18
SWIDTH1 0 -1000
DWIDTH1 0 -22
BITMAP 
1E00
7F80
E1C0
C0C0
C0C0
01C0
0380
0700
0E00
1C00
3800
7000
E000
FFC0
FFC0
ENDCHAR
STARTCHAR char33
ENCODING 51
SWIDTH 545 0
DWIDTH 12 0
BBX 10 15 1 0
VVECTOR 6 18
SWIDTH1 0 -1000
DWIDTH1 0 -22
BITMAP 
1E00
7F80
E1C0
C0C0
C0C0
0180
0F00
0F80
01C0
00C0
C0C0
C0C0
E1C0
7F80
1E00
ENDCHAR
STARTCHAR char34
ENCODING 52
SWIDTH 545 0
DWIDTH 12 0
BBX 10 15 1 0
VVECTOR 6 18
SWIDTH1 0 -1000
DWIDTH1 0 -22
BITMAP 
0700
0F00
0F00
1B00
1B00
3300
3300
6300
6300
FFC0
FFC0
0300
0300
0300
0300
ENDCHAR
STARTCHAR char35
ENCODING 53
SWIDTH 545 0
DWIDTH 12 0
BBX 10 15 1 0
VVECTOR 6 18
SWIDTH1 0 -1000
DWIDTH1 0 -22
BITMAP 
7F80
7F80
6000
6000
6000
6E00
7F80
61C0
00C0
00C0
C0C0
C0C0
E1C0
7F80
1E00
ENDCHAR
STARTCHAR char36
ENCODING 54
SWIDTH 545 0
DWIDTH 12 0
BBX 10 15 1 0
VVECTOR 6 18
SWIDTH1 0 -1000
DWIDTH1 0 -22
BITMAP 
1E00
7F80
E1C0
C0C0
C0C0
C000
DE00
FF80
E1C0
C0C0
C0C0
C0C0
E1C0
7F80
1E00
ENDCHAR
STARTCHAR char37
ENCODING 55
SWIDTH 545 0
DWIDTH 12 0
BBX 10 15 1 0
VVECTOR 6 18
SWIDTH1 0 -1000
DWIDTH1 0 -22
BITMAP 
FFC0
FFC0
00C0
0180
0180
0180
0300
0300
0300
0600
0600
0600
0C00
0C00
0C00
ENDCHAR
STARTCHAR char38
ENCODING 56
SWIDTH 545 0
DWIDTH 12 0
BBX 10 15 1 0
VVECTOR 6 18
SWIDTH1 0 -1000
DWIDTH1 0 -22
BITMAP 
1E00
7F80
E1C0
C0C0
C0C0
6180
3F00
7F80
E1C0
C0C0
C0C0
C0C0
E1C0
7F80
1E00
ENDCHAR
STARTCHAR char39
ENCODING 57
SWIDTH 545 0
DWIDTH 12 0
BBX 10 15 1 0
VVECTOR 6 18
SWIDTH1 0 -1000
DWIDTH1 0 -22
BITMAP 
1E00
7F80
E1C0
C0C0
C0C0
C0C0
E1C0
7FC0
1EC0
00C0
C0C0
C0C0
E1C0
7F80
1E00
ENDCHAR
STARTCHAR char3A
ENCODING 58
SWIDTH 182 0
DWIDTH 4 0
BBX 2 9 1 0
VVECTOR 2 18
SWIDTH1 0 -1000
DWIDTH1 0 -22
BITMAP 
C0
C0
00
00
00
00
00
C0
C0
ENDCHAR
STARTCHAR char3B
ENCODING 59
SWIDTH 182 0
DWIDTH 4 0
BBX 2 12 1 -3
VVECTOR 2 18
SWIDTH1 0 -1000
DWIDTH1 0 -22
BITMAP 
C0
C0
00
00
00
00
00
C0
C0
40
40
80
ENDCHAR
STARTCHAR char3C
ENCODING 60
SWIDTH 545 0
DWIDTH 12 0
BBX 8 13 2 0
VVECTOR 6 18
SWIDTH1 0 -1000
DWIDTH1 0 -22
BITMAP 
03
06
0C
18
30
60
C0
60
30
18
0C
06
03
ENDCHAR
STARTCHAR char3D
ENCODING 61
SWIDTH 773 0
DWIDTH 17 0
BBX 15 6 1 5
VVECTOR 9 18
SWIDTH1 0 -1000
DWIDTH1 0 -22
BITMAP 
FFFE
FFFE
0000
0000
FFFE
FFFE
ENDCHAR
STARTCHAR char3E
ENCODING 62
SWIDTH 545 0
DWIDTH 12 0
BBX 8 13 2 0
VVECTOR 6 18
SWIDTH1 0 -1000
DWIDTH1 0 -22
BITMAP 
C0
60
30
18
0C
06
03
06
0C
18
30
60
C0
ENDCHAR
STARTCHAR char3F
ENCODING 63
SWIDTH 545 0
DWIDTH 12 0
BBX 10 15 1 0
VVECTOR 6 18
SWIDTH1 0 -1000
DWIDTH1 0 -22
BITMAP 
1E00
7F80
E1C0
C0C0
C0C0
01C0
0380
0700
0E00
0C00
0C00
0000
0000
0C00
0C00
ENDCHAR
STARTCHAR char40
ENCODING 64
SWIDTH 773 0
DWIDTH 17 0
BBX 15 15 1 0
VVECTOR 9 18
SWIDTH1 0 -1000
DWIDTH1 0 -22
BITMAP 
0FE0
3018
4004
4004
87E2
8FE2
8C62
8C62
8CE2
8FE2
873C
4000
4000
3000
0FE0
ENDCHAR
STARTCHAR char41
ENCODING 65
SWIDTH 591 0
DWIDTH 13 0
BBX 11 15 1 0
VVECTOR 7 18
SWIDTH1 0 -1000
DWIDTH1 0 -22
BITMAP 
0E00
0E00
1B00
1B00
3180
3180
3180
60C0
7FC0
7FC0
60C0
C060
C060
C060
C060
ENDCHAR
STARTCHAR char42
ENCODING 66
SWIDTH 636 0
DWIDTH 14 0
BBX 12 15 1 0
VVECTOR 7 18
SWIDTH1 0 -1000
DWIDTH1 0 -22
BITMAP 
FF80
FFE0
C070
C030
C030
C060
FFC0
FFE0
C070
C030
C030
C030
C070
FFE0
FF80
ENDCHAR
STARTCHAR char43
ENCODING 67
SWIDTH 682 0
DWIDTH 15 0
BBX 13 15 1 0
VVECTOR 8 18
SWIDTH1 0 -1000
DWIDTH1 0 -22
BITMAP 
0F80
3FE0
7070
6038
C018
C018
C000
C000
C000
C018
C018
6038
7070
3FE0
0F80
ENDCHAR
STARTCHAR char44
ENCODING 68
SWIDTH 682 0
DWIDTH 15 0
BBX 13 15 1 0
VVECTOR 8 18
SWIDTH1 0 -1000
DWIDTH1 0 -22
BITMAP 
FF80
FFE0
C070
C030
C038
C018
C018
C018
C018
C018
C038
C030
C070
FFE0
FF80
ENDCHAR
STARTCHAR char45
ENCODING 69
SWIDTH 591 0
DWIDTH 13 0
BBX 11 15 1 0
VVECTOR 7 18
SWIDTH1 0 -1000
DWIDTH1 0 -22
BITMAP 
FFE0
FFE0
C000
C000
C000
C000
FF80
FF80
C000
C000
C000
C000
C000
FFE0
FFE0
ENDCHAR
STARTCHAR char46
ENCODING 70
SWIDTH 591 0
DWIDTH 13 0
BBX 11 15 1 0
VVECTOR 7 18
SWIDTH1 0 -1000
DWIDTH1 0 -22
BITMAP 
FFE0
FFE0
C000
C000
C000
C000
FF80
FF80
C000
C000
C000
C000
C000
C000
C000
ENDCHAR
STARTCHAR char47
ENCODING 71
SWIDTH 682 0
DWIDTH 15 0
BBX 13 15 1 0
VVECTOR 8 18
SWIDTH1 0 -1000
DWIDTH1 0 -22
BITMAP 
0F80
3FE0
7070
6038
C018
C018
C000
C000
C1F8
C1F8
C018
6038
7078
3FD8
0F98
ENDCHAR
STARTCHAR char48
ENCODING 72
SWIDTH 682 0
DWIDTH 15 0
BBX 13 15 1 0
VVECTOR 8 18
SWIDTH1 0 -1000
DWIDTH1 0 -22
BITMAP 
C018
C018
C018
C018
C018
C018
FFF8
FFF8
C018
C018
C018
C018
C018
C018
C018
ENDCHAR
STARTCHAR char49
ENCODING 73
SWIDTH 273 0
DWIDTH 6 0
BBX 2 15 2 0
VVECTOR 3 18
SWIDTH1 0 -1000
DWIDTH1 0 -22
BITMAP 
C0
C0
C0
C0
C0
C0
C0
C0
C0
C0
C0
C0
C0
C0
C0
ENDCHAR
STARTCHAR char4A
ENCODING 74
SWIDTH 500 0
DWIDTH 11 0
BBX 9 15 1 0
VVECTOR 6 18
SWIDTH1 0 -1000
DWIDTH1 0 -22
BITMAP 
0180
0180
0180
0180
0180
0180
0180
0180
0180
0180
C180
C180
E380
7F00
1C00
ENDCHAR
STARTCHAR char4B
ENCODING 75
SWIDTH 636 0
DWIDTH 14 0
BBX 12 15 1 0
VVECTOR 7 18
SWIDTH1 0 -1000
DWIDTH1 0 -22
BITMAP 
C070
C0E0
C1C0
C380
C700
CE00
DC00
F800
FC00
EE00
C700
C380
C1C0
C0E0
C070
ENDCHAR
STARTCHAR char4C
ENCODING 76
SWIDTH 545 0
DWIDTH 12 0
BBX 10 15 1 0
VVECTOR 6 18
SWIDTH1 0 -1000
DWIDTH1 0 -22
BITMAP 
C000
C000
C000
C000
C000
C000
C000
C000
C000
C000
C000
C000
C000
FFC0
FFC0
ENDCHAR
STARTCHAR char4D
ENCODING 77
SWIDTH 818 0
DWIDTH 18 0
BBX 16 15 1 0
VVECTOR 9 18
SWIDTH1 0 -1000
DWIDTH1 0 -22
BITMAP 
8001
C003
E007
F00F
F81F
DC3B
CE73
C7E3
C3C3
C183
C003
C003
C003
C003
C003
ENDCHAR
STARTCHAR char4E
ENCODING 78
SWIDTH 727 0
DWIDTH 16 0
BBX 14 15 1 0
VVECTOR 8 18
SWIDTH1 0 -1000
DWIDTH1 0 -22
BITMAP 
800C
C00C
E00C
F00C
F80C
DC0C
CE0C
C70C
C38C
C1CC
C0EC
C07C
C03C
C01C
C00C
ENDCHAR
STARTCHAR char4F
ENCODING 79
SWIDTH 727 0
DWIDTH 16 0
BBX 14 15 1 0
VVECTOR 8 18
SWIDTH1 0 -1000
DWIDTH1 0 -22
BITMAP 
0FC0
3FF0
7038
6018
C00C
C00C
C00C
C00C
C00C
C00C
C00C
6018
7038
3FF0
0FC0
ENDCHAR
STARTCHAR char50
ENCODING 80
SWIDTH 591 0
DWIDTH 13 0
BBX 11 15 1 0
VVECTOR 7 18
SWIDTH1 0 -1000
DWIDTH1 0 -22
BITMAP 
FF00
FFC0
C0E0
C060
C060
C060
C0E0
FFC0
FF00
C000
C000
C000
C000
C000
C000
ENDCHAR
STARTCHAR char51
ENCODING 81
SWIDTH 727 0
DWIDTH 16 0
BBX 14 17 1 -2
VVECTOR 8 18
SWIDTH1 0 -1000
DWIDTH1 0 -22
BITMAP 
0FC0
3FF0
7038
6018
C00C
C00C
C00C
C00C
C00C
C00C
C00C
6198
71B8
3FF0
0FE0
0030
0030
ENDCHAR
STARTCHAR char52
ENCODING 82
SWIDTH 636 0
DWIDTH 14 0
BBX 13 15 1 0
VVECTOR 8 18
SWIDTH1 0 -1000
DWIDTH1 0 -22
BITMAP 
FF80
FFE0
C070
C030
C030
C030
C060
FFC0
FFE0
C070
C030
C030
C030
C030
C018
ENDCHAR
STARTCHAR char53
ENCODING 83
SWIDTH 591 0
DWIDTH 13 0
BBX 11 15 1 0
VVECTOR 7 18
SWIDTH1 0 -1000
DWIDTH1 0 -22
BITMAP 
1F00
7FC0
E0E0
C060
E060
7000
3C00
0F00
03C0
00E0
C060
C060
E0E0
7FC0
1F00
ENDCHAR
STARTCHAR char54
ENCODING 84
SWIDTH 591 0
DWIDTH 13 0
BBX 12 15 0 0
VVECTOR 6 18
SWIDTH1 0 -1000
DWIDTH1 0 -22
BITMAP 
FFF0
FFF0
0600
0600
0600
0600
0600
0600
0600
0600
0600
0600
0600
0600
0600
ENDCHAR
STARTCHAR char55
ENCODING 85
SWIDTH 682 0
DWIDTH 15 0
BBX 12 15 1 0
VVECTOR 7 18
SWIDTH1 0 -1000
DWIDTH1 0 -22
BITMAP 
C030
C030
C030
C030
C030
C030
C030
C030
C030
C030
C030
C030
E070
7FE0
1F80
ENDCHAR
STARTCHAR char56
ENCODING 86
SWIDTH 682 0
DWIDTH 15 0
BBX 13 15 1 0
VVECTOR 8 18
SWIDTH1 0 -1000
DWIDTH1 0 -22
BITMAP 
C018
C018
C018
6030
6030
6030
3060
3060
18C0
18C0
18C0
0D80
0D80
0700
0700
ENDCHAR
STARTCHAR char57
ENCODING 87
SWIDTH 955 0
DWIDTH 21 0
BBX 19 15 1 0
VVECTOR 11 18
SWIDTH1 0 -1000
DWIDTH1 0 -22
BITMAP 
C00060
C00060
C00060
C0E060
C0E060
E1B0E0
61B0C0
63B8C0
6318C0
6318C0
771DC0
360D80
360D80
3C0780
180300
ENDCHAR
STARTCHAR char58
ENCODING 88
SWIDTH 682 0
DWIDTH 15 0
BBX 13 15 1 0
VVECTOR 8 18
SWIDTH1 0 -1000
DWIDTH1 0 -22
BITMAP 
E038
7070
3060
38E0
1DC0
0F80
0700
0700
0700
0F80
1DC0
38E0
3060
7070
E038
ENDCHAR
STARTCHAR char59
ENCODING 89
SWIDTH 636 0
DWIDTH 14 0
BBX 12 15 1 0
VVECTOR 7 18
SWIDTH1 0 -1000
DWIDTH1 0 -22
BITMAP 
C030
C030
6060
6060
30C0
30C0
1980
1F80
0F00
0600
0600
0600
0600
0600
0600
ENDCHAR
STARTCHAR char5A
ENCODING 90
SWIDTH 545 0
DWIDTH 12 0
BBX 10 15 1 0
VVECTOR 6 18
SWIDTH1 0 -1000
DWIDTH1 0 -22
BITMAP 
FFC0
FFC0
0180
0300
0300
0600
0600
0C00
1800
1800
3000
3000
6000
FFC0
FFC0
ENDCHAR
STARTCHAR char5B
ENCODING 91
SWIDTH 318 0
DWIDTH 7 0
BBX 5 21 1 -4
VVECTOR 4 18
SWIDTH1 0 -1000
DWIDTH1 0 -22
BITMAP 
F8
F8
C0
C0
C0
C0
C0
C0
C0
C0
C0
C0
C0
C0
C0
C0
C0
C0
C0
F8
F8
ENDCHAR
STARTCHAR char5C
ENCODING 92
SWIDTH 318 0
DWIDTH 7 0
BBX 5 15 1 0
VVECTOR 4 18
SWIDTH1 0 -1000
DWIDTH1 0 -22
BITMAP 
C0
C0
C0
C0
60
60
60
30
30
30
30
18
18
18
18
ENDCHAR
STARTCHAR char5D
ENCODING 93
SWIDTH 318 0
DWIDTH 7 0
BBX 5 21 1 -4
VVECTOR 4 18
SWIDTH1 0 -1000
DWIDTH1 0 -22
BITMAP 
F8
F8
18
18
18
18
18
18
18
18
18
18
18
18
18
18
18
18
18
F8
F8
ENDCHAR
STARTCHAR char5E
ENCODING 94
SWIDTH 545 0
DWIDTH 12 0
BBX 7 3 2 15
VVECTOR 6 18
SWIDTH1 0 -1000
DWIDTH1 0 -22
BITMAP 
38
6C
C6
ENDCHAR
STARTCHAR char5F
ENCODING 95
SWIDTH 955 0
DWIDTH 21 0
BBX 21 2 0 -4
VVECTOR 11 18
SWIDTH1 0 -1000
DWIDTH1 0 -22
BITMAP 
FFFFF8
FFFFF8
ENDCHAR
STARTCHAR char60
ENCODING 96
SWIDTH 545 0
DWIDTH 12 0
BBX 4 3 4 15
VVECTOR 6 18
SWIDTH1 0 -1000
DWIDTH1 0 -22
BITMAP 
C0
60
30
ENDCHAR
STARTCHAR char61
ENCODING 97
SWIDTH 500 0
DWIDTH 11 0
BBX 9 11 1 0
VVECTOR 6 18
SWIDTH1 0 -1000
DWIDTH1 0 -22
BITMAP 
3E00
7F00
6380
0180
1F80
7F80
E180
C180
E380
7F80
3980
ENDCHAR
STARTCHAR char62
ENCODING 98
SWIDTH 545 0
DWIDTH 12 0
BBX 10 15 1 0
VVECTOR 6 18
SWIDTH1 0 -1000
DWIDTH1 0 -22
BITMAP 
C000
C000
C000
C000
CE00
FF80
E1C0
C0C0
C0C0
C0C0
C0C0
C0C0
E1C0
FF80
CE00
ENDCHAR
STARTCHAR char63
ENCODING 99
SWIDTH 545 0
DWIDTH 12 0
BBX 10 11 1 0
VVECTOR 6 18
SWIDTH1 0 -1000
DWIDTH1 0 -22
BITMAP 
1E00
7F80
E1C0
C0C0
C000
C000
C000
C0C0
E1C0
7F80
1E00
ENDCHAR
STARTCHAR char64
ENCODING 100
SWIDTH 545 0
DWIDTH 12 0
BBX 10 15 1 0
VVECTOR 6 18
SWIDTH1 0 -1000
DWIDTH1 0 -22
BITMAP 
00C0
00C0
00C0
00C0
3CC0
7FC0
E1C0
C0C0
C0C0
C0C0
C0C0
C0C0
E1C0
7FC0
1CC0
ENDCHAR
STARTCHAR char65
ENCODING 101
SWIDTH 545 0
DWIDTH 12 0
BBX 10 11 1 0
VVECTOR 6 18
SWIDTH1 0 -1000
DWIDTH1 0 -22
BITMAP 
1E00
7F80
E1C0
C0C0
FFC0
FFC0
C000
C000
E1C0
7F80
1F00
ENDCHAR
STARTCHAR char66
ENCODING 102
SWIDTH 273 0
DWIDTH 6 0
BBX 4 15 1 0
VVECTOR 3 18
SWIDTH1 0 -1000
DWIDTH1 0 -22
BITMAP 
30
70
60
60
F0
F0
60
60
60
60
60
60
60
60
60
ENDCHAR
STARTCHAR char67
ENCODING 103
SWIDTH 545 0
DWIDTH 12 0
BBX 10 15 1 -4
VVECTOR 6 18
SWIDTH1 0 -1000
DWIDTH1 0 -22
BITMAP 
1CC0
7FC0
E1C0
C0C0
C0C0
C0C0
C0C0
C0C0
E1C0
7FC0
1CC0
00C0
C1C0
7F80
1E00
ENDCHAR
STARTCHAR char68
ENCODING 104
SWIDTH 545 0
DWIDTH 12 0
BBX 10 15 1 0
VVECTOR 6 18
SWIDTH1 0 -1000
DWIDTH1 0 -22
BITMAP 
C000
C000
C000
C000
CE00
FF80
F1C0
E0C0
C0C0
C0C0
C0C0
C0C0
C0C0
C0C0
C0C0
ENDCHAR
STARTCHAR char69
ENCODING 105
SWIDTH 273 0
DWIDTH 6 0
BBX 2 15 2 0
VVECTOR 3 18
SWIDTH1 0 -1000
DWIDTH1 0 -22
BITMAP 
C0
C0
00
00
C0
C0
C0
C0
C0
C0
C0
C0
C0
C0
C0
ENDCHAR
STARTCHAR char6A
ENCODING 106
SWIDTH 227 0
DWIDTH 5 0
BBX 4 19 0 -4
VVECTOR 2 18
SWIDTH1 0 -1000
DWIDTH1 0 -22
BITMAP 
30
30
00
00
30
30
30
30
30
30
30
30
30
30
30
30
30
F0
E0
ENDCHAR
STARTCHAR char6B
ENCODING 107
SWIDTH 500 0
DWIDTH 11 0
BBX 10 15 1 0
VVECTOR 6 18
SWIDTH1 0 -1000
DWIDTH1 0 -22
BITMAP 
C000
C000
C000
C000
C180
C300
C600
CC00
D800
F800
EC00
C600
C300
C180
C0C0
ENDCHAR
STARTCHAR char6C
ENCODING 108
SWIDTH 273 0
DWIDTH 6 0
BBX 2 15 2 0
VVECTOR 3 18
SWIDTH1 0 -1000
DWIDTH1 0 -22
BITMAP 
C0
C0
C0
C0
C0
C0
C0
C0
C0
C0
C0
C0
C0
C0
C0
ENDCHAR
STARTCHAR char6D
ENCODING 109
SWIDTH 864 0
DWIDTH 19 0
BBX 16 11 1 0
VVECTOR 9 18
SWIDTH1 0 -1000
DWIDTH1 0 -22
BITMAP 
CE1C
FF7E
E3C7
C183
C183
C183
C183
C183
C183
C183
C183
ENDCHAR
STARTCHAR char6E
ENCODING 110
SWIDTH 545 0
DWIDTH 12 0
BBX 10 11 1 0
VVECTOR 6 18
SWIDTH1 0 -1000
DWIDTH1 0 -22
BITMAP 
CE00
FF80
F1C0
E0C0
C0C0
C0C0
C0C0
C0C0
C0C0
C0C0
C0C0
ENDCHAR
STARTCHAR char6F
ENCODING 111
SWIDTH 545 0
DWIDTH 12 0
BBX 10 11 1 0
VVECTOR 6 18
SWIDTH1 0 -1000
DWIDTH1 0 -22
BITMAP 
1E00
7F80
E1C0
C0C0
C0C0
C0C0
C0C0
C0C0
E1C0
7F80
1E00
ENDCHAR
STARTCHAR char70
ENCODING 112
SWIDTH 545 0
DWIDTH 12 0
BBX 10 15 1 -4
VVECTOR 6 18
SWIDTH1 0 -1000
DWIDTH1 0 -22
BITMAP 
CE00
FF80
E1C0
C0C0
C0C0
C0C0
C0C0
C0C0
E1C0
FF80
CE00
C000
C000
C000
C000
ENDCHAR
STARTCHAR char71
ENCODING 113
SWIDTH 545 0
DWIDTH 12 0
BBX 10 15 1 -4
VVECTOR 6 18
SWIDTH1 0 -1000
DWIDTH1 0 -22
BITMAP 
1CC0
7FC0
E1C0
C0C0
C0C0
C0C0
C0C0
C0C0
E1C0
7FC0
1CC0
00C0
00C0
00C0
00C0
ENDCHAR
STARTCHAR char72
ENCODING 114
SWIDTH 318 0
DWIDTH 7 0
BBX 6 11 1 0
VVECTOR 4 18
SWIDTH1 0 -1000
DWIDTH1 0 -22
BITMAP 
CC
FC
F0
E0
C0
C0
C0
C0
C0
C0
C0
ENDCHAR
STARTCHAR char73
ENCODING 115
SWIDTH 455 0
DWIDTH 10 0
BBX 8 11 1 0
VVECTOR 5 18
SWIDTH1 0 -1000
DWIDTH1 0 -22
BITMAP 
3C
7E
C7
C0
F0
7E
0F
03
E3
7E
3C
ENDCHAR
STARTCHAR char74
ENCODING 116
SWIDTH 273 0
DWIDTH 6 0
BBX 4 14 1 0
VVECTOR 3 18
SWIDTH1 0 -1000
DWIDTH1 0 -22
BITMAP 
60
60
60
F0
F0
60
60
60
60
60
60
60
70
30
ENDCHAR
STARTCHAR char75
ENCODING 117
SWIDTH 545 0
DWIDTH 12 0
BBX 10 11 1 0
VVECTOR 6 18
SWIDTH1 0 -1000
DWIDTH1 0 -22
BITMAP 
C0C0
C0C0
C0C0
C0C0
C0C0
C0C0
C0C0
C0C0
E1C0
7FC0
1CC0
ENDCHAR
STARTCHAR char76
ENCODING 118
SWIDTH 500 0
DWIDTH 11 0
BBX 9 11 1 0
VVECTOR 6 18
SWIDTH1 0 -1000
DWIDTH1 0 -22
BITMAP 
C180
C180
C180
6300
6300
6300
3600
3600
3600
1C00
1C00
ENDCHAR
STARTCHAR char77
ENCODING 119
SWIDTH 773 0
DWIDTH 17 0
BBX 15 11 1 0
VVECTOR 9 18
SWIDTH1 0 -1000
DWIDTH1 0 -22
BITMAP 
C006
C106
C386
C6C6
C6C6
66CC
6C6C
6C6C
6C6C
3838
3018
ENDCHAR
STARTCHAR char78
ENCODING 120
SWIDTH 500 0
DWIDTH 11 0
BBX 9 11 1 0
VVECTOR 6 18
SWIDTH1 0 -1000
DWIDTH1 0 -22
BITMAP 
C180
6300
6300
3600
1C00
1C00
1C00
3600
6300
6300
C180
ENDCHAR
STARTCHAR char79
ENCODING 121
SWIDTH 545 0
DWIDTH 12 0
BBX 10 15 1 -4
VVECTOR 6 18
SWIDTH1 0 -1000
DWIDTH1 0 -22
BITMAP 
C0C0
C0C0
C0C0
6180
6180
3180
3300
3300
1B00
1E00
0E00
0C00
1C00
F800
F000
ENDCHAR
STARTCHAR char7A
ENCODING 122
SWIDTH 455 0
DWIDTH 10 0
BBX 8 11 1 0
VVECTOR 5 18
SWIDTH1 0 -1000
DWIDTH1 0 -22
BITMAP 
FF
FF
03
07
0E
1C
38
70
E0
FF
FF
ENDCHAR
STARTCHAR char7B
ENCODING 123
SWIDTH 318 0
DWIDTH 7 0
BBX 6 21 0 -4
VVECTOR 3 18
SWIDTH1 0 -1000
DWIDTH1 0 -22
BITMAP 
1C
3C
30
30
30
30
30
30
30
E0
E0
30
30
30
30
30
30
30
30
3C
1C
ENDCHAR
STARTCHAR char7C
ENCODING 124
SWIDTH 182 0
DWIDTH 4 0
BBX 2 19 1 -3
VVECTOR 2 18
SWIDTH1 0 -1000
DWIDTH1 0 -22
BITMAP 
C0
C0
C0
C0
C0
C0
C0
C0
C0
C0
C0
C0
C0
C0
C0
C0
C0
C0
C0
ENDCHAR
STARTCHAR char7D
ENCODING 125
SWIDTH 318 0
DWIDTH 7 0
BBX 6 21 1 -4
VVECTOR 4 18
SWIDTH1 0 -1000
DWIDTH1 0 -22
BITMAP 
E0
F0
30
30
30
30
30
30
30
1C
1C
30
30
30
30
30
30
30
30
F0
E0
ENDCHAR
STARTCHAR char7E
ENCODING 126
SWIDTH 545 0
DWIDTH 12 0
BBX 8 2 2 16
VVECTOR 6 18
SWIDTH1 0 -1000
DWIDTH1 0 -22
BITMAP 
79
9E
ENDCHAR
STARTCHAR char7F
ENCODING 127
SWIDTH 0 0
DWIDTH 0 0
BBX 0 0 0 -4
VVECTOR 0 -4
SWIDTH1 0 0
DWIDTH1 0 0
BITMAP 
ENDCHAR
STARTCHAR char80
ENCODING 128
SWIDTH 591 0
DWIDTH 13 0
BBX 11 18 1 0
VVECTOR 7 18
SWIDTH1 0 -1000
DWIDTH1 0 -22
BITMAP 
3180
3180
0000
0E00
0E00
1B00
1B00
3180
3180
3180
60C0
7FC0
7FC0
60C0
C060
C060
C060
C060
ENDCHAR
STARTCHAR char81
ENCODING 129
SWIDTH 591 0
DWIDTH 13 0
BBX 11 18 1 0
VVECTOR 7 18
SWIDTH1 0 -1000
DWIDTH1 0 -22
BITMAP 
0400
0A00
0A00
0400
0E00
1B00
1B00
3180
3180
3180
60C0
7FC0
7FC0
60C0
C060
C060
C060
C060
ENDCHAR
STARTCHAR char82
ENCODING 130
SWIDTH 682 0
DWIDTH 15 0
BBX 13 19 1 -4
VVECTOR 8 18
SWIDTH1 0 -1000
DWIDTH1 0 -22
BITMAP 
0F80
3FE0
7070
E038
C018
C018
C000
C000
C000
C018
C018
E038
7070
3FE0
0F80
0200
0100
0900
0600
ENDCHAR
STARTCHAR char83
ENCODING 131
SWIDTH 591 0
DWIDTH 13 0
BBX 11 18 1 0
VVECTOR 7 18
SWIDTH1 0 -1000
DWIDTH1 0 -22
BITMAP 
0300
0600
0000
FFE0
FFE0
C000
C000
C000
C000
FF80
FF80
C000
C000
C000
C000
C000
FFE0
FFE0
ENDCHAR
STARTCHAR char84
ENCODING 132
SWIDTH 727 0
DWIDTH 16 0
BBX 14 18 1 0
VVECTOR 8 18
SWIDTH1 0 -1000
DWIDTH1 0 -22
BITMAP 
0F20
13C0
0000
800C
C00C
E00C
F00C
F80C
DC0C
CE0C
C70C
C38C
C1CC
C0EC
C07C
C03C
C01C
C00C
ENDCHAR
STARTCHAR char85
ENCODING 133
SWIDTH 727 0
DWIDTH 16 0
BBX 14 18 1 0
VVECTOR 8 18
SWIDTH1 0 -1000
DWIDTH1 0 -22
BITMAP 
3030
3030
0000
0FC0
3FF0
7038
E01C
C00C
C00C
C00C
C00C
C00C
C00C
C00C
E01C
7038
3FF0
0FC0
ENDCHAR
STARTCHAR char86
ENCODING 134
SWIDTH 682 0
DWIDTH 15 0
BBX 12 18 1 0
VVECTOR 7 18
SWIDTH1 0 -1000
DWIDTH1 0 -22
BITMAP 
30C0
30C0
0000
C030
C030
C030
C030
C030
C030
C030
C030
C030
C030
C030
C030
E070
7FE0
1F80
ENDCHAR
STARTCHAR char87
ENCODING 135
SWIDTH 500 0
DWIDTH 11 0
BBX 9 16 1 0
VVECTOR 6 18
SWIDTH1 0 -1000
DWIDTH1 0 -22
BITMAP 
0300
0600
0C00
0000
0000
3E00
7F00
6380
0180
1F80
7F80
E180
C180
E380
7F80
3980
ENDCHAR
STARTCHAR char88
ENCODING 136
SWIDTH 500 0
DWIDTH 11 0
BBX 9 16 1 0
VVECTOR 6 18
SWIDTH1 0 -1000
DWIDTH1 0 -22
BITMAP 
3000
1800
0C00
0000
0000
3E00
7F00
6380
0180
1F80
7F80
E180
C180
E380
7F80
3980
ENDCHAR
STARTCHAR char89
ENCODING 137
SWIDTH 500 0
DWIDTH 11 0
BBX 9 16 1 0
VVECTOR 6 18
SWIDTH1 0 -1000
DWIDTH1 0 -22
BITMAP 
1C00
3600
6300
0000
0000
3E00
7F00
6380
0180
1F80
7F80
E180
C180
E380
7F80
3980
ENDCHAR
STARTCHAR char8A
ENCODING 138
SWIDTH 500 0
DWIDTH 11 0
BBX 9 15 1 0
VVECTOR 6 18
SWIDTH1 0 -1000
DWIDTH1 0 -22
BITMAP 
6300
6300
0000
0000
3E00
7F00
6380
0180
1F80
7F80
E180
C180
E380
7F80
3980
ENDCHAR
STARTCHAR char8B
ENCODING 139
SWIDTH 500 0
DWIDTH 11 0
BBX 9 15 1 0
VVECTOR 6 18
SWIDTH1 0 -1000
DWIDTH1 0 -22
BITMAP 
3C80
4F00
0000
0000
3E00
7F00
6380
0180
1F80
7F80
E180
C180
E380
7F80
3980
ENDCHAR
STARTCHAR char8C
ENCODING 140
SWIDTH 500 0
DWIDTH 11 0
BBX 9 17 1 0
VVECTOR 6 18
SWIDTH1 0 -1000
DWIDTH1 0 -22
BITMAP 
0C00
1200
1200
0C00
0000
0000
3E00
7F00
6380
0180
1F80
7F80
E180
C180
E380
7F80
3980
ENDCHAR
STARTCHAR char8D
ENCODING 141
SWIDTH 545 0
DWIDTH 12 0
BBX 10 15 1 -4
VVECTOR 6 18
SWIDTH1 0 -1000
DWIDTH1 0 -22
BITMAP 
1E00
7F80
E1C0
C0C0
C000
C000
C000
C0C0
E1C0
7F80
1E00
0400
0200
1200
0C00
ENDCHAR
STARTCHAR char8E
ENCODING 142
SWIDTH 545 0
DWIDTH 12 0
BBX 10 16 1 0
VVECTOR 6 18
SWIDTH1 0 -1000
DWIDTH1 0 -22
BITMAP 
0300
0600
0C00
0000
0000
1E00
7F80
E1C0
C0C0
FFC0
FFC0
C000
C000
E1C0
7F80
1F00
ENDCHAR
STARTCHAR char8F
ENCODING 143
SWIDTH 545 0
DWIDTH 12 0
BBX 10 16 1 0
VVECTOR 6 18
SWIDTH1 0 -1000
DWIDTH1 0 -22
BITMAP 
3000
1800
0C00
0000
0000
1E00
7F80
E1C0
C0C0
FFC0
FFC0
C000
C000
E1C0
7F80
1F00
ENDCHAR
STARTCHAR char90
ENCODING 144
SWIDTH 545 0
DWIDTH 12 0
BBX 10 16 1 0
VVECTOR 6 18
SWIDTH1 0 -1000
DWIDTH1 0 -22
BITMAP 
0C00
1E00
3300
0000
0000
1E00
7F80
E1C0
C0C0
FFC0
FFC0
C000
C000
E1C0
7F80
1F00
ENDCHAR
STARTCHAR char91
ENCODING 145
SWIDTH 545 0
DWIDTH 12 0
BBX 10 15 1 0
VVECTOR 6 18
SWIDTH1 0 -1000
DWIDTH1 0 -22
BITMAP 
3300
3300
0000
0000
1E00
7F80
E1C0
C0C0
FFC0
FFC0
C000
C000
E1C0
7F80
1F00
ENDCHAR
STARTCHAR char92
ENCODING 146
SWIDTH 273 0
DWIDTH 6 0
BBX 4 16 2 0
VVECTOR 4 18
SWIDTH1 0 -1000
DWIDTH1 0 -22
BITMAP 
30
60
C0
00
00
C0
C0
C0
C0
C0
C0
C0
C0
C0
C0
C0
ENDCHAR
STARTCHAR char93
ENCODING 147
SWIDTH 273 0
DWIDTH 6 0
BBX 4 16 0 0
VVECTOR 2 18
SWIDTH1 0 -1000
DWIDTH1 0 -22
BITMAP 
C0
60
30
00
00
30
30
30
30
30
30
30
30
30
30
30
ENDCHAR
STARTCHAR char94
ENCODING 148
SWIDTH 273 0
DWIDTH 6 0
BBX 6 16 0 0
VVECTOR 3 18
SWIDTH1 0 -1000
DWIDTH1 0 -22
BITMAP 
30
78
CC
00
00
30
30
30
30
30
30
30
30
30
30
30
ENDCHAR
STARTCHAR char95
ENCODING 149
SWIDTH 273 0
DWIDTH 6 0
BBX 6 15 0 0
VVECTOR 3 18
SWIDTH1 0 -1000
DWIDTH1 0 -22
BITMAP 
CC
CC
00
00
30
30
30
30
30
30
30
30
30
30
30
ENDCHAR
STARTCHAR char96
ENCODING 150
SWIDTH 545 0
DWIDTH 12 0
BBX 10 15 1 0
VVECTOR 6 18
SWIDTH1 0 -1000
DWIDTH1 0 -22
BITMAP 
3C80
4F00
0000
0000
CE00
FF80
F1C0
E0C0
C0C0
C0C0
C0C0
C0C0
C0C0
C0C0
C0C0
ENDCHAR
STARTCHAR char97
ENCODING 151
SWIDTH 545 0
DWIDTH 12 0
BBX 10 16 1 0
VVECTOR 6 18
SWIDTH1 0 -1000
DWIDTH1 0 -22
BITMAP 
0300
0600
0C00
0000
0000
1E00
7F80
E1C0
C0C0
C0C0
C0C0
C0C0
C0C0
E1C0
7F80
1E00
ENDCHAR
STARTCHAR char98
ENCODING 152
SWIDTH 545 0
DWIDTH 12 0
BBX 10 16 1 0
VVECTOR 6 18
SWIDTH1 0 -1000
DWIDTH1 0 -22
BITMAP 
3000
1800
0C00
0000
0000
1E00
7F80
E1C0
C0C0
C0C0
C0C0
C0C0
C0C0
E1C0
7F80
1E00
ENDCHAR
STARTCHAR char99
ENCODING 153
SWIDTH 545 0
DWIDTH 12 0
BBX 10 16 1 0
VVECTOR 6 18
SWIDTH1 0 -1000
DWIDTH1 0 -22
BITMAP 
0C00
1E00
3300
0000
0000
1E00
7F80
E1C0
C0C0
C0C0
C0C0
C0C0
C0C0
E1C0
7F80
1E00
ENDCHAR
STARTCHAR char9A
ENCODING 154
SWIDTH 545 0
DWIDTH 12 0
BBX 10 15 1 0
VVECTOR 6 18
SWIDTH1 0 -1000
DWIDTH1 0 -22
BITMAP 
3300
3300
0000
0000
1E00
7F80
E1C0
C0C0
C0C0
C0C0
C0C0
C0C0
E1C0
7F80
1E00
ENDCHAR
STARTCHAR char9B
ENCODING 155
SWIDTH 545 0
DWIDTH 12 0
BBX 10 15 1 0
VVECTOR 6 18
SWIDTH1 0 -1000
DWIDTH1 0 -22
BITMAP 
3C80
4F00
0000
0000
1E00
7F80
E1C0
C0C0
C0C0
C0C0
C0C0
C0C0
E1C0
7F80
1E00
ENDCHAR
STARTCHAR char9C
ENCODING 156
SWIDTH 545 0
DWIDTH 12 0
BBX 10 16 1 0
VVECTOR 6 18
SWIDTH1 0 -1000
DWIDTH1 0 -22
BITMAP 
0300
0600
0C00
0000
0000
C0C0
C0C0
C0C0
C0C0
C0C0
C0C0
C0C0
C0C0
E1C0
7FC0
1CC0
ENDCHAR
STARTCHAR char9D
ENCODING 157
SWIDTH 545 0
DWIDTH 12 0
BBX 10 16 1 0
VVECTOR 6 18
SWIDTH1 0 -1000
DWIDTH1 0 -22
BITMAP 
3000
1800
0C00
0000
0000
C0C0
C0C0
C0C0
C0C0
C0C0
C0C0
C0C0
C0C0
E1C0
7FC0
1CC0
ENDCHAR
STARTCHAR char9E
ENCODING 158
SWIDTH 545 0
DWIDTH 12 0
BBX 10 16 1 0
VVECTOR 6 18
SWIDTH1 0 -1000
DWIDTH1 0 -22
BITMAP 
0C00
1E00
3300
0000
0000
C0C0
C0C0
C0C0
C0C0
C0C0
C0C0
C0C0
C0C0
E1C0
7FC0
1CC0
ENDCHAR
STARTCHAR char9F
ENCODING 159
SWIDTH 545 0
DWIDTH 12 0
BBX 10 15 1 0
VVECTOR 6 18
SWIDTH1 0 -1000
DWIDTH1 0 -22
BITMAP 
3300
3300
0000
0000
C0C0
C0C0
C0C0
C0C0
C0C0
C0C0
C0C0
C0C0
E1C0
7FC0
1CC0
ENDCHAR
STARTCHAR charA0
ENCODING 160
SWIDTH 545 0
DWIDTH 12 0
BBX 10 16 1 -1
VVECTOR 6 18
SWIDTH1 0 -1000
DWIDTH1 0 -22
BITMAP 
0C00
0C00
0C00
FFC0
FFC0
0C00
0C00
0C00
0C00
0C00
0C00
0C00
0C00
0C00
0C00
0C00
ENDCHAR
STARTCHAR charA1
ENCODING 161
SWIDTH 318 0
DWIDTH 7 0
BBX 5 6 1 9
VVECTOR 4 18
SWIDTH1 0 -1000
DWIDTH1 0 -22
BITMAP 
70
F8
D8
D8
F8
70
ENDCHAR
STARTCHAR charA2
ENCODING 162
SWIDTH 545 0
DWIDTH 12 0
BBX 8 15 2 0
VVECTOR 6 18
SWIDTH1 0 -1000
DWIDTH1 0 -22
BITMAP 
08
08
08
1C
7F
EB
C8
C8
C8
EB
7F
1C
08
08
08
ENDCHAR
STARTCHAR charA3
ENCODING 163
SWIDTH 545 0
DWIDTH 12 0
BBX 10 15 1 0
VVECTOR 6 18
SWIDTH1 0 -1000
DWIDTH1 0 -22
BITMAP 
0F00
1F80
39C0
30C0
3000
3000
FE00
FE00
3000
3000
3000
3000
30C0
FFC0
FF80
ENDCHAR
STARTCHAR charA4
ENCODING 164
SWIDTH 364 0
DWIDTH 8 0
BBX 7 16 0 -1
VVECTOR 4 18
SWIDTH1 0 -1000
DWIDTH1 0 -22
BITMAP 
38
44
40
20
30
48
84
82
82
42
24
18
08
04
44
38
ENDCHAR
STARTCHAR charA5
ENCODING 165
SWIDTH 318 0
DWIDTH 7 0
BBX 5 5 1 6
VVECTOR 4 18
SWIDTH1 0 -1000
DWIDTH1 0 -22
BITMAP 
70
F8
F8
F8
70
ENDCHAR
STARTCHAR charA6
ENCODING 166
SWIDTH 545 0
DWIDTH 12 0
BBX 11 16 1 -1
VVECTOR 7 18
SWIDTH1 0 -1000
DWIDTH1 0 -22
BITMAP 
7CE0
FCE0
CCC0
CCC0
CCC0
CCC0
CCC0
FCC0
7CC0
0CC0
0CC0
0CC0
0CC0
0CC0
0CC0
0CC0
ENDCHAR
STARTCHAR charA7
ENCODING 167
SWIDTH 591 0
DWIDTH 13 0
BBX 11 15 1 0
VVECTOR 7 18
SWIDTH1 0 -1000
DWIDTH1 0 -22
BITMAP 
1F00
7FC0
E0E0
C060
C060
C0C0
C780
C7C0
C0E0
C060
C060
C060
C0E0
DFC0
DF80
ENDCHAR
STARTCHAR charA8
ENCODING 168
SWIDTH 773 0
DWIDTH 17 0
BBX 15 14 1 0
VVECTOR 9 18
SWIDTH1 0 -1000
DWIDTH1 0 -22
BITMAP 
0FE0
3018
4004
4004
8782
8442
8442
8782
8442
8422
4004
4004
3018
0FE0
ENDCHAR
STARTCHAR charA9
ENCODING 169
SWIDTH 864 0
DWIDTH 19 0
BBX 15 14 2 0
VVECTOR 10 18
SWIDTH1 0 -1000
DWIDTH1 0 -22
BITMAP 
0FE0
3018
4004
4004
8382
8442
8402
8402
8442
8382
4004
4004
3018
0FE0
ENDCHAR
STARTCHAR charAA
ENCODING 170
SWIDTH 545 0
DWIDTH 12 0
BBX 9 3 1 12
VVECTOR 6 18
SWIDTH1 0 -1000
DWIDTH1 0 -22
BITMAP 
E880
4D80
4A80
ENDCHAR
STARTCHAR charAB
ENCODING 171
SWIDTH 545 0
DWIDTH 12 0
BBX 4 3 4 15
VVECTOR 6 18
SWIDTH1 0 -1000
DWIDTH1 0 -22
BITMAP 
30
60
C0
ENDCHAR
STARTCHAR charAC
ENCODING 172
SWIDTH 545 0
DWIDTH 12 0
BBX 7 2 3 16
VVECTOR 7 18
SWIDTH1 0 -1000
DWIDTH1 0 -22
BITMAP 
C6
C6
ENDCHAR
STARTCHAR charAD
ENCODING 173
SWIDTH 773 0
DWIDTH 17 0
BBX 15 12 1 2
VVECTOR 9 18
SWIDTH1 0 -1000
DWIDTH1 0 -22
BITMAP 
0008
0010
0020
FFFE
FFFE
0080
0100
FFFE
FFFE
0400
0800
1000
ENDCHAR
STARTCHAR charAE
ENCODING 174
SWIDTH 909 0
DWIDTH 20 0
BBX 18 15 1 0
VVECTOR 10 18
SWIDTH1 0 -1000
DWIDTH1 0 -22
BITMAP 
07FFC0
07FFC0
0C6000
0C6000
186000
186000
186000
307F80
3FFF80
7FE000
606000
606000
C06000
C07FC0
C07FC0
ENDCHAR
STARTCHAR charAF
ENCODING 175
SWIDTH 727 0
DWIDTH 16 0
BBX 14 15 1 0
VVECTOR 8 18
SWIDTH1 0 -1000
DWIDTH1 0 -22
BITMAP 
0FC8
3FF0
7038
E05C
C04C
C08C
C10C
C10C
C20C
C40C
C40C
E81C
7038
3FF0
4FC0
ENDCHAR
STARTCHAR charB0
ENCODING 176
SWIDTH 773 0
DWIDTH 17 0
BBX 15 7 1 5
VVECTOR 9 18
SWIDTH1 0 -1000
DWIDTH1 0 -22
BITMAP 
7C7C
FEFE
C7C6
C386
C7C6
FEFE
7C7C
ENDCHAR
STARTCHAR charB1
ENCODING 177
SWIDTH 773 0
DWIDTH 17 0
BBX 14 15 1 0
VVECTOR 8 18
SWIDTH1 0 -1000
DWIDTH1 0 -22
BITMAP 
0300
0300
0300
0300
0300
FFFC
FFFC
0300
0300
0300
0300
0300
0000
FFFC
FFFC
ENDCHAR
STARTCHAR charB2
ENCODING 178
SWIDTH 545 0
DWIDTH 12 0
BBX 10 15 1 0
VVECTOR 6 18
SWIDTH1 0 -1000
DWIDTH1 0 -22
BITMAP 
0300
0600
0C00
1800
3000
6000
3000
1800
0C00
0600
0300
0000
0000
FFC0
FFC0
ENDCHAR
STARTCHAR charB3
ENCODING 179
SWIDTH 545 0
DWIDTH 12 0
BBX 10 15 1 0
VVECTOR 6 18
SWIDTH1 0 -1000
DWIDTH1 0 -22
BITMAP 
3000
1800
0C00
0600
0300
0180
0300
0600
0C00
1800
3000
0000
0000
FFC0
FFC0
ENDCHAR
STARTCHAR charB4
ENCODING 180
SWIDTH 545 0
DWIDTH 12 0
BBX 10 15 1 0
VVECTOR 6 18
SWIDTH1 0 -1000
DWIDTH1 0 -22
BITMAP 
C0C0
C0C0
6180
6180
3300
3300
1E00
FFC0
0C00
0C00
FFC0
0C00
0C00
0C00
0C00
ENDCHAR
STARTCHAR charB5
ENCODING 181
SWIDTH 545 0
DWIDTH 12 0
BBX 10 13 1 -2
VVECTOR 6 18
SWIDTH1 0 -1000
DWIDTH1 0 -22
BITMAP 
C180
C180
C180
C180
C180
C180
C180
C180
E380
FFC0
DEC0
C000
C000
ENDCHAR
STARTCHAR charB6
ENCODING 182
SWIDTH 545 0
DWIDTH 12 0
BBX 10 15 1 0
VVECTOR 6 18
SWIDTH1 0 -1000
DWIDTH1 0 -22
BITMAP 
0F00
0F80
01C0
00C0
3CC0
7FC0
E3C0
C1C0
C0C0
C0C0
C0C0
C0C0
E1C0
7F80
1E00
ENDCHAR
STARTCHAR charB7
ENCODING 183
SWIDTH 773 0
DWIDTH 17 0
BBX 15 20 1 -3
VVECTOR 9 18
SWIDTH1 0 -1000
DWIDTH1 0 -22
BITMAP 
FFF0
FFF8
E00C
7006
3800
1C00
0E00
0700
0380
01C0
00E0
01C0
0380
0700
0E00
1C00
3806
700C
FFF8
FFF0
ENDCHAR
STARTCHAR charB8
ENCODING 184
SWIDTH 773 0
DWIDTH 17 0
BBX 15 15 1 0
VVECTOR 9 18
SWIDTH1 0 -1000
DWIDTH1 0 -22
BITMAP 
FFFE
FFFE
1830
1830
1830
1830
1830
1830
1830
1830
1830
1830
1830
1830
1830
ENDCHAR
STARTCHAR charB9
ENCODING 185
SWIDTH 773 0
DWIDTH 17 0
BBX 15 11 1 0
VVECTOR 9 18
SWIDTH1 0 -1000
DWIDTH1 0 -22
BITMAP 
3FFE
7FFE
C630
0630
0630
0C30
0C30
0C30
1830
1830
1830
ENDCHAR
STARTCHAR charBA
ENCODING 186
SWIDTH 318 0
DWIDTH 7 0
BBX 6 21 0 -4
VVECTOR 3 18
SWIDTH1 0 -1000
DWIDTH1 0 -22
BITMAP 
1C
3C
30
30
30
30
30
30
30
30
30
30
30
30
30
30
30
30
30
F0
E0
ENDCHAR
STARTCHAR charBB
ENCODING 187
SWIDTH 500 0
DWIDTH 11 0
BBX 9 15 1 0
VVECTOR 6 18
SWIDTH1 0 -1000
DWIDTH1 0 -22
BITMAP 
3E00
7F00
6380
0180
1F80
7F80
E180
C180
E380
7F80
3980
0000
0000
FF80
FF80
ENDCHAR
STARTCHAR charBC
ENCODING 188
SWIDTH 545 0
DWIDTH 12 0
BBX 10 15 1 0
VVECTOR 6 18
SWIDTH1 0 -1000
DWIDTH1 0 -22
BITMAP 
3F00
7F80
E1C0
C0C0
C0C0
C0C0
C0C0
C0C0
E1C0
7F80
1F00
0000
0000
FFC0
FFC0
ENDCHAR
STARTCHAR charBD
ENCODING 189
SWIDTH 773 0
DWIDTH 17 0
BBX 15 15 1 0
VVECTOR 9 18
SWIDTH1 0 -1000
DWIDTH1 0 -22
BITMAP 
0FE0
3FF8
701C
600C
600C
600C
600C
3018
3018
3018
1830
1830
8C62
FC7E
7C7C
ENDCHAR
STARTCHAR charBE
ENCODING 190
SWIDTH 818 0
DWIDTH 18 0
BBX 16 11 1 0
VVECTOR 9 18
SWIDTH1 0 -1000
DWIDTH1 0 -22
BITMAP 
3E38
7F7E
63C7
0183
1FFF
7FFF
E180
C180
E3C7
7EFE
383C
ENDCHAR
STARTCHAR charBF
ENCODING 191
SWIDTH 545 0
DWIDTH 12 0
BBX 10 11 1 0
VVECTOR 6 18
SWIDTH1 0 -1000
DWIDTH1 0 -22
BITMAP 
1E40
7F80
E1C0
C2C0
C4C0
C4C0
C8C0
D0C0
E1C0
7F80
9E00
ENDCHAR
STARTCHAR charC0
ENCODING 192
SWIDTH 545 0
DWIDTH 12 0
BBX 10 15 1 0
VVECTOR 6 18
SWIDTH1 0 -1000
DWIDTH1 0 -22
BITMAP 
0C00
0C00
0000
0000
0C00
0C00
1C00
3800
7000
E000
C0C0
C0C0
E1C0
7F80
1E00
ENDCHAR
STARTCHAR charC1
ENCODING 193
SWIDTH 318 0
DWIDTH 7 0
BBX 2 15 2 0
VVECTOR 3 18
SWIDTH1 0 -1000
DWIDTH1 0 -22
BITMAP 
C0
C0
00
00
C0
C0
C0
C0
C0
C0
C0
C0
C0
C0
C0
ENDCHAR
STARTCHAR charC2
ENCODING 194
SWIDTH 773 0
DWIDTH 17 0
BBX 15 6 1 3
VVECTOR 9 18
SWIDTH1 0 -1000
DWIDTH1 0 -22
BITMAP 
FFFE
FFFE
0006
0006
0006
0006
ENDCHAR
STARTCHAR charC3
ENCODING 195
SWIDTH 773 0
DWIDTH 17 0
BBX 15 21 1 -4
VVECTOR 9 18
SWIDTH1 0 -1000
DWIDTH1 0 -22
BITMAP 
003E
003E
0030
0030
0060
0060
0060
0060
00C0
00C0
00C0
0180
0180
0180
0180
0300
E300
1300
0B00
0600
0200
ENDCHAR
STARTCHAR charC4
ENCODING 196
SWIDTH 545 0
DWIDTH 12 0
BBX 10 17 1 -2
VVECTOR 6 18
SWIDTH1 0 -1000
DWIDTH1 0 -22
BITMAP 
0780
0FC0
0CC0
0C00
0C00
0C00
0C00
7F80
7F80
0C00
0C00
0C00
0C00
0C00
CC00
FC00
7800
ENDCHAR
STARTCHAR charC5
ENCODING 197
SWIDTH 773 0
DWIDTH 17 0
BBX 15 8 1 4
VVECTOR 9 18
SWIDTH1 0 -1000
DWIDTH1 0 -22
BITMAP 
3F06
FFFE
C1F8
0000
0000
3F06
FFFE
C1F8
ENDCHAR
STARTCHAR charC6
ENCODING 198
SWIDTH 773 0
DWIDTH 17 0
BBX 14 15 1 0
VVECTOR 8 18
SWIDTH1 0 -1000
DWIDTH1 0 -22
BITMAP 
0300
0300
0780
0780
0CC0
0CC0
1860
1860
3030
3030
6018
6018
C00C
FFFC
FFFC
ENDCHAR
STARTCHAR charC7
ENCODING 199
SWIDTH 545 0
DWIDTH 12 0
BBX 10 7 1 4
VVECTOR 6 18
SWIDTH1 0 -1000
DWIDTH1 0 -22
BITMAP 
18C0
3180
6300
C600
6300
3180
18C0
ENDCHAR
STARTCHAR charC8
ENCODING 200
SWIDTH 545 0
DWIDTH 12 0
BBX 10 7 1 4
VVECTOR 6 18
SWIDTH1 0 -1000
DWIDTH1 0 -22
BITMAP 
C600
6300
3180
18C0
3180
6300
C600
ENDCHAR
STARTCHAR charC9
ENCODING 201
SWIDTH 773 0
DWIDTH 17 0
BBX 14 2 1 0
VVECTOR 8 18
SWIDTH1 0 -1000
DWIDTH1 0 -22
BITMAP 
C30C
C30C
ENDCHAR
STARTCHAR charCA
ENCODING 202
SWIDTH 318 0
DWIDTH 7 0
BBX 0 0 1 -4
VVECTOR 1 -4
SWIDTH1 0 0
DWIDTH1 0 0
BITMAP 
ENDCHAR
STARTCHAR charCB
ENCODING 203
SWIDTH 591 0
DWIDTH 13 0
BBX 11 18 1 0
VVECTOR 7 18
SWIDTH1 0 -1000
DWIDTH1 0 -22
BITMAP 
1800
0C00
0000
0E00
0E00
1B00
1B00
3180
3180
3180
60C0
7FC0
7FC0
60C0
C060
C060
C060
C060
ENDCHAR
STARTCHAR charCC
ENCODING 204
SWIDTH 591 0
DWIDTH 13 0
BBX 11 18 1 0
VVECTOR 7 18
SWIDTH1 0 -1000
DWIDTH1 0 -22
BITMAP 
1E40
2780
0000
0000
0E00
0E00
1B00
1B00
3180
3180
3180
7FC0
7FC0
60C0
C060
C060
C060
C060
ENDCHAR
STARTCHAR charCD
ENCODING 205
SWIDTH 727 0
DWIDTH 16 0
BBX 14 18 1 0
VVECTOR 8 18
SWIDTH1 0 -1000
DWIDTH1 0 -22
BITMAP 
0F20
13C0
0000
0000
0FC0
3FF0
7038
E01C
C00C
C00C
C00C
C00C
C00C
C00C
E01C
7038
3FF0
0FC0
ENDCHAR
STARTCHAR charCE
ENCODING 206
SWIDTH 1045 0
DWIDTH 23 0
BBX 21 15 1 0
VVECTOR 12 18
SWIDTH1 0 -1000
DWIDTH1 0 -22
BITMAP 
0F9FF8
3FFFF8
707800
E03800
C01800
C01800
C01FF0
C01FF0
C01800
C01800
C01800
E03800
707800
3FFFF8
0F9FF8
ENDCHAR
STARTCHAR charCF
ENCODING 207
SWIDTH 864 0
DWIDTH 19 0
BBX 17 11 1 0
VVECTOR 10 18
SWIDTH1 0 -1000
DWIDTH1 0 -22
BITMAP 
1E3C00
7FFF00
E1E380
C0C180
C0FF80
C0FF80
C0C000
C0C000
E1E380
7FFF00
1E3E00
ENDCHAR
STARTCHAR charD0
ENCODING 208
SWIDTH 318 0
DWIDTH 7 0
BBX 5 2 1 7
VVECTOR 4 18
SWIDTH1 0 -1000
DWIDTH1 0 -22
BITMAP 
F8
F8
ENDCHAR
STARTCHAR charD1
ENCODING 209
SWIDTH 773 0
DWIDTH 17 0
BBX 17 2 0 7
VVECTOR 9 18
SWIDTH1 0 -1000
DWIDTH1 0 -22
BITMAP 
FFFF80
FFFF80
ENDCHAR
STARTCHAR charD2
ENCODING 210
SWIDTH 500 0
DWIDTH 11 0
BBX 7 4 2 11
VVECTOR 6 18
SWIDTH1 0 -1000
DWIDTH1 0 -22
BITMAP 
66
CC
CC
CC
ENDCHAR
STARTCHAR charD3
ENCODING 211
SWIDTH 500 0
DWIDTH 11 0
BBX 7 4 2 11
VVECTOR 6 18
SWIDTH1 0 -1000
DWIDTH1 0 -22
BITMAP 
66
66
66
CC
ENDCHAR
STARTCHAR charD4
ENCODING 212
SWIDTH 318 0
DWIDTH 7 0
BBX 3 4 2 11
VVECTOR 4 18
SWIDTH1 0 -1000
DWIDTH1 0 -22
BITMAP 
60
C0
C0
C0
ENDCHAR
STARTCHAR charD5
ENCODING 213
SWIDTH 318 0
DWIDTH 7 0
BBX 3 4 2 11
VVECTOR 4 18
SWIDTH1 0 -1000
DWIDTH1 0 -22
BITMAP 
60
60
60
C0
ENDCHAR
STARTCHAR charD6
ENCODING 214
SWIDTH 773 0
DWIDTH 17 0
BBX 15 10 1 3
VVECTOR 9 18
SWIDTH1 0 -1000
DWIDTH1 0 -22
BITMAP 
0380
0380
0000
0000
FFFE
FFFE
0000
0000
0380
0380
ENDCHAR
STARTCHAR charD7
ENCODING 215
SWIDTH 773 0
DWIDTH 17 0
BBX 13 13 2 2
VVECTOR 9 18
SWIDTH1 0 -1000
DWIDTH1 0 -22
BITMAP 
0200
0700
0D80
18C0
3060
6030
C018
6030
3060
18C0
0D80
0700
0200
ENDCHAR
STARTCHAR charD8
ENCODING 216
SWIDTH 545 0
DWIDTH 12 0
BBX 10 19 1 -4
VVECTOR 6 18
SWIDTH1 0 -1000
DWIDTH1 0 -22
BITMAP 
6180
6180
0000
0000
C0C0
C0C0
C0C0
6180
6180
3180
3300
3300
1B00
1E00
0E00
0C00
1C00
F800
F000
ENDCHAR
STARTCHAR missing
ENCODING -1
SWIDTH 636 0
DWIDTH 14 0
BBX 12 19 1 -2
VVECTOR 7 18
SWIDTH1 0 -1000
DWIDTH1 0 -22
BITMAP 
FFF0
FFF0
E0F0
C070
8E30
9F30
9F30
FF30
FE30
FC70
F8F0
F9F0
F9F0
F9F0
FFF0
FFF0
F9F0
F9F0
FFF0
ENDCHAR
ENDFONT
